<svg xmlns="http://www.w3.org/2000/svg" xmlns:xlink="http://www.w3.org/1999/xlink" version="1.1" width="256" height="256" viewBox="0 0 256 256" xml:space="preserve">
<g style="stroke: none; stroke-width: 0; stroke-dasharray: none; stroke-linecap: butt; stroke-linejoin: miter; stroke-miterlimit: 10; fill: none; fill-rule: nonzero; opacity: 1;" transform="translate(1.4065934065934016 1.4065934065934016) scale(2.81 2.81)">
	<path d="M 82.179 15.718 H 45.132 L 40.084 0 H 5.865 C 2.646 0 0.009 2.637 0.009 5.865 v 59.707 c 0 3.219 2.637 5.856 5.856 5.856 h 34.621 L 46.54 90 h 35.639 c 4.308 0 7.813 -3.465 7.813 -7.725 V 23.442 C 89.991 19.183 86.486 15.718 82.179 15.718 z M 24.729 49.521 c -7.593 0 -13.758 -6.165 -13.758 -13.758 s 6.165 -13.758 13.758 -13.758 c 3.713 0 6.826 1.376 9.216 3.581 l -3.634 3.492 c -1.041 -0.961 -2.857 -2.143 -5.583 -2.143 c -4.789 0 -8.669 3.96 -8.669 8.837 s 3.88 8.837 8.669 8.837 c 5.53 0 7.814 -3.96 8.034 -6.632 v 0 l -8.026 -0.009 v -4.71 h 12.876 c 0.185 0.847 0.326 1.676 0.326 2.805 C 37.941 43.938 32.684 49.521 24.729 49.521 z M 86.078 82.275 c 0 2.102 -1.749 3.812 -3.9 3.812 H 49.731 l 13.275 -14.659 h 0.017 l -9.454 -29.439 h 17.48 c -1.129 3.977 -3.625 7.735 -6.059 10.654 c -4.313 -5.106 -4.33 -6.764 -4.33 -6.764 h -4.48 c 0 0 0.185 2.487 6.235 9.578 c -1.967 2.011 -3.457 3.201 -3.457 3.201 l 1.376 4.304 c 0 0 2.081 -1.79 4.683 -4.551 c 2.611 2.831 5.979 6.235 10.336 10.292 l 2.831 -2.831 c -4.665 -4.233 -8.087 -7.593 -10.601 -10.292 c 3.369 -3.986 6.791 -9.005 7.514 -13.599 h 7.461 v 0.009 h 0.009 v -3.448 H 65.942 v -5.574 h -5.397 v 5.574 h -8.084 l -6.073 -18.91 h 35.79 c 2.15 0 3.9 1.71 3.9 3.811 V 82.275 z" style="stroke: none; stroke-width: 1; stroke-dasharray: none; stroke-linecap: butt; stroke-linejoin: miter; stroke-miterlimit: 10; fill: rgb(0,0,0); fill-rule: nonzero; opacity: 1;" transform=" matrix(1 0 0 1 0 0) " stroke-linecap="round"/>
</g>
</svg>